<svg width="180" height="180" viewBox="0 0 180 180" fill="none" xmlns="http://www.w3.org/2000/svg">
<g clip-path="url(#clip0_401_5)">
<path d="M59.0237 106.673C53.9164 101.565 49.8652 95.5022 47.1012 88.8293C44.3372 82.1564 42.9145 75.0044 42.9145 67.7817C42.9145 60.559 44.3372 53.4071 47.1012 46.7341C49.8652 40.0612 53.9165 33.9981 59.0237 28.8909C64.1309 23.7836 70.1941 19.7324 76.867 16.9684C83.5399 14.2044 90.6918 12.7817 97.9145 12.7817C105.137 12.7817 112.289 14.2044 118.962 16.9684C125.635 19.7324 131.698 23.7836 136.805 28.8909L97.9145 67.7817L59.0237 106.673Z" fill="#155F3E"/>
<path d="M121.673 73.012C126.78 78.1192 130.831 84.1823 133.595 90.8552C136.359 97.5282 137.782 104.68 137.782 111.903C137.782 119.126 136.359 126.278 133.595 132.95C130.831 139.623 126.78 145.686 121.673 150.794C116.565 155.901 110.502 159.952 103.829 162.716C97.1564 165.48 90.0044 166.903 82.7817 166.903C75.559 166.903 68.4071 165.48 61.7342 162.716C55.0612 159.952 48.9981 155.901 43.8909 150.794L82.7817 111.903L121.673 73.012Z" fill="#155F3E"/>
</g>
<defs>
<clipPath id="clip0_401_5">
<rect width="180" height="180" fill="white"/>
</clipPath>
</defs>
</svg>
